<?xml version="1.0" encoding="utf-8"?>
<!-- Generator: Adobe Illustrator 27.0.1, SVG Export Plug-In . SVG Version: 6.00 Build 0)  -->
<svg version="1.1" id="Calque_1" xmlns="http://www.w3.org/2000/svg" xmlns:xlink="http://www.w3.org/1999/xlink" x="0px" y="0px"
	 viewBox="0 0 1216 285" style="enable-background:new 0 0 1216 285;" xml:space="preserve">
<g>
	<path d="M306.47,126.95c-1.77-2.38-3.79-4.48-6.07-6.29c-2.28-1.81-4.88-3.21-7.8-4.23c-2.93-1.01-6.34-1.52-10.24-1.52
		c-2.82,0-5.55,0.56-8.18,1.68c-2.64,1.12-5.11,2.62-7.42,4.5c-2.31,1.88-4.39,4.01-6.23,6.39c-1.84,2.38-3.34,4.81-4.5,7.26h55.38
		C309.89,131.93,308.24,129.33,306.47,126.95z"/>
	<path d="M259.11,176.13c2.2,3.11,4.75,5.58,7.64,7.42c2.89,1.84,5.96,3.16,9.21,3.96c3.25,0.8,6.32,1.19,9.21,1.19
		c6.43,0.25,13.27-0.27,16.02-0.81c2.75-0.54,5.4-1.26,7.97-2.17c2.56-0.9,4.9-1.98,7.05-3.14c5.89-3.2,10.62-8.44,13.65-12.45
		c1.74-2.3,0.1-5.6-2.79-5.6h-66.93c-2.89,0-5,2.84-4.06,5.58C256.85,172.36,257.86,174.36,259.11,176.13z"/>
	<path d="M468.01,128.9c-2.75-3.11-6.03-5.56-9.86-7.37c-3.83-1.81-8.06-2.71-12.68-2.71c-4.55,0-8.87,0.85-12.95,2.55
		c-4.08,1.7-7.66,4.01-10.73,6.94c-3.07,2.93-5.56,6.38-7.48,10.35c-1.92,3.98-2.98,8.2-3.2,12.68v1.63c0,4.77,0.9,9.25,2.71,13.44
		c1.81,4.19,4.26,7.82,7.37,10.89c3.11,3.07,6.76,5.51,10.95,7.31c4.19,1.81,8.63,2.71,13.33,2.71c4.62,0,8.85-0.9,12.68-2.71
		c3.83-1.81,7.12-4.24,9.86-7.31c2.75-3.07,4.88-6.7,6.4-10.89c1.52-4.19,2.28-8.67,2.28-13.44c0-4.62-0.76-9.01-2.28-13.17
		C472.89,135.64,470.76,132,468.01,128.9z"/>
	<path d="M1117.62,123.33c-2.64-3.18-5.85-5.69-9.65-7.53c-3.79-1.84-8.04-2.76-12.73-2.76c-4.84,0-9.19,0.92-13.06,2.76
		s-7.15,4.35-9.86,7.53s-4.81,6.87-6.29,11.05c-1.48,4.19-2.22,8.6-2.22,13.22c0,4.77,0.74,9.23,2.22,13.39
		c1.48,4.15,3.58,7.75,6.29,10.78s6,5.44,9.86,7.21c3.87,1.77,8.22,2.66,13.06,2.66c4.7,0,8.94-0.88,12.73-2.66
		c3.79-1.77,7.01-4.17,9.65-7.21c2.64-3.03,4.66-6.63,6.07-10.78c1.41-4.16,2.11-8.62,2.11-13.39c0-4.62-0.7-9.03-2.11-13.22
		C1122.28,130.19,1120.26,126.51,1117.62,123.33z"/>
	<path d="M1191.39-0.2H25.6c-13.86,0-25.1,11.24-25.1,25.1V259.7c0,13.86,11.24,25.1,25.1,25.1h1165.79
		c13.86,0,25.1-11.24,25.1-25.1V24.91C1216.49,11.04,1205.25-0.2,1191.39-0.2z M200.81,163.2c-1.95,6.9-4.73,13.33-8.34,19.29
		c-3.61,5.96-7.93,11.36-12.95,16.2c-5.02,4.84-10.59,8.96-16.69,12.36c-6.11,3.4-12.7,6.01-19.78,7.86
		c-7.08,1.84-14.41,2.76-22,2.76H67.61c-1.3,0-2.46-0.29-3.47-0.87c-1.01-0.58-1.52-1.81-1.52-3.68V65.71
		c0-1.52,0.41-2.75,1.25-3.69c0.83-0.94,2.08-1.41,3.74-1.41h53.43c7.59,0,14.9,0.94,21.95,2.82c7.04,1.88,13.62,4.55,19.73,8.02
		c6.1,3.47,11.69,7.62,16.74,12.46c5.06,4.84,9.38,10.26,12.95,16.26c3.58,6,6.36,12.46,8.34,19.4c1.99,6.94,2.98,14.2,2.98,21.78
		C203.74,149.02,202.76,156.3,200.81,163.2z M511.36,180.92c-3.4,8.67-8.11,16.2-14.14,22.6c-6.03,6.39-13.22,11.43-21.57,15.12
		c-8.35,3.68-17.47,5.53-27.37,5.53c-4.7,0-8.74-0.56-12.14-1.68c-3.4-1.12-6.41-2.58-9.05-4.39c-2.64-1.81-4.97-3.79-6.99-5.96
		c-2.02-2.17-4.01-4.33-5.96-6.5v50.5c0,2.17-0.65,4.01-1.95,5.53c-1.3,1.52-3.32,2.28-6.07,2.28h-24.82
		c-0.87,0-1.81-0.18-2.82-0.54c-1.01-0.36-1.95-0.87-2.82-1.52c-0.87-0.65-1.59-1.46-2.17-2.44c-0.58-0.98-0.87-2.08-0.87-3.31
		v-74.9c0,0-1.33-4.74-5.24-0.72c-16.15,14.87-36.02,31.36-54.37,38.39c-8.03,3.08-16.36,4.93-25.25,4.93
		c-9.9,0-19.26-1.81-28.07-5.42c-8.82-3.61-16.55-8.62-23.19-15.01c-6.65-6.39-11.92-13.93-15.82-22.6s-5.85-18.1-5.85-28.29
		c0-6.36,0.78-12.52,2.33-18.48c1.55-5.96,3.76-11.54,6.61-16.74c2.85-5.2,6.32-9.99,10.4-14.36c4.08-4.37,8.65-8.11,13.71-11.22
		c5.06-3.11,10.55-5.53,16.47-7.26c5.92-1.73,12.17-2.6,18.75-2.6c6,0,11.81,0.8,17.45,2.38c5.64,1.59,10.93,3.83,15.88,6.72
		c4.95,2.89,9.48,6.36,13.6,10.4c4.12,4.05,7.66,8.47,10.62,13.28c2.96,4.81,5.26,9.94,6.88,15.39c1.63,5.46,2.44,11.07,2.44,16.85
		c0,0.01,0,0.02,0,0.02c0,2.09,2.61,3.05,3.95,1.45l17.15-20.34c0,0,1.3-1.81,1.55-5.05V91.51c0-1.44,0.27-2.64,0.81-3.58
		c0.54-0.94,1.21-1.81,2.01-2.6c0.94-0.79,1.91-1.3,2.93-1.52c1.01-0.22,1.99-0.32,2.93-0.32h16.37c1.37,0,2.51,0.22,3.41,0.65
		c0.9,0.43,1.64,1.03,2.22,1.79c0.58,0.76,1.06,1.63,1.46,2.6c0.4,0.97,0.78,2.04,1.14,3.2l4.55,13.11c2.02-2.6,4.06-5.26,6.12-7.97
		c2.06-2.71,4.5-5.16,7.32-7.37c2.82-2.2,6.18-4.03,10.08-5.47c3.9-1.44,8.67-2.17,14.31-2.17c9.9,0,19.02,1.83,27.37,5.47
		c8.34,3.65,15.53,8.67,21.57,15.06c6.03,6.4,10.75,13.91,14.14,22.54c3.4,8.64,5.09,17.98,5.09,28.02
		C516.46,162.93,514.76,172.25,511.36,180.92z M669.38,213.65c0,1.23-0.22,2.4-0.65,3.52c-0.43,1.12-1.16,2.01-2.17,2.66
		c-0.8,0.79-1.73,1.3-2.82,1.52c-1.08,0.22-2.02,0.33-2.82,0.33h-21.35c-1.52,0-2.75-0.2-3.68-0.59c-0.94-0.4-1.7-0.96-2.28-1.68
		c-0.58-0.72-1.07-1.61-1.46-2.66c-0.4-1.05-0.81-2.18-1.25-3.41l-1.41-4.88c-1.95,1.95-4.17,3.87-6.67,5.75
		c-2.49,1.88-5.24,3.56-8.24,5.04c-3,1.48-6.22,2.67-9.65,3.58c-3.43,0.9-6.99,1.36-10.68,1.36c-6.58,0-12.88-0.83-18.91-2.49
		c-6.03-1.66-11.67-4.03-16.91-7.1c-5.24-3.07-9.99-6.76-14.25-11.05c-4.26-4.3-7.93-9.09-11-14.36c-3.07-5.27-5.44-10.96-7.1-17.07
		s-2.49-12.48-2.49-19.13c0-10.04,1.84-19.38,5.53-28.02c3.69-8.63,8.71-16.15,15.07-22.54c6.36-6.39,13.84-11.42,22.43-15.06
		c8.6-3.65,17.81-5.47,27.64-5.47c4.48,0,8.65,0.51,12.52,1.52c3.86,1.01,7.41,2.38,10.62,4.12c3.21,1.73,6.12,3.81,8.72,6.23
		c2.6,2.42,4.88,5.04,6.83,7.86l3.14-9.86c0.72-1.81,1.32-3.27,1.79-4.39c0.47-1.12,0.98-1.95,1.52-2.49
		c0.54-0.54,1.21-0.9,2.01-1.08c0.79-0.18,1.91-0.27,3.36-0.27h16.15c0.79,0,1.73,0.11,2.82,0.32c1.08,0.22,2.02,0.72,2.82,1.52
		c1.01,0.79,1.73,1.7,2.17,2.71c0.43,1.01,0.65,2.17,0.65,3.47V213.65z M816.63,210.32c0,2.75-0.6,4.82-1.79,6.23
		c-1.19,1.41-3.09,2.11-5.69,2.11h-25.04c-3.11,0-5.24-0.52-6.39-1.57c-1.16-1.05-1.73-3.09-1.73-6.12v-70.56
		c0-3.11-0.71-6.05-2.11-8.83c-1.41-2.78-3.27-5.24-5.58-7.37c-2.31-2.13-4.93-3.81-7.86-5.04c-2.93-1.23-5.91-1.84-8.94-1.84
		c-2.6,0-5.26,0.58-7.97,1.73c-2.71,1.16-5.2,2.76-7.48,4.82c-2.28,2.06-4.19,4.48-5.74,7.26c-1.55,2.78-2.44,5.8-2.65,9.05v70.45
		c0,1.23-0.24,2.46-0.71,3.68c-0.47,1.23-1.18,2.17-2.11,2.82c-0.94,0.58-1.83,0.97-2.65,1.19c-0.83,0.22-1.79,0.33-2.87,0.33
		h-24.49c-3.11,0-5.35-0.76-6.72-2.28c-1.37-1.52-2.06-3.54-2.06-6.07V89.13c0-1.37,0.31-2.63,0.92-3.78c0,0,0.05-1.32,1.9-2.38
		c0.94-0.79,1.93-1.3,2.98-1.52c1.05-0.22,2.04-0.32,2.98-0.32h16.36c1.3,0,2.42,0.23,3.36,0.7c0.94,0.47,1.73,1.1,2.38,1.9
		c0.65,0.79,1.17,1.69,1.57,2.7c0.4,1.01,0.78,2.05,1.14,3.13l2.28,9.51c1.08-2.23,2.83-4.54,5.26-6.91c2.42-2.38,5.42-4.54,9-6.49
		c3.58-1.94,7.71-3.55,12.41-4.81c4.7-1.26,9.93-1.89,15.72-1.89c8.24,0,15.59,1.59,22.06,4.76c6.47,3.17,11.96,7.49,16.47,12.97
		c4.51,5.48,7.95,11.87,10.3,19.2c2.35,7.32,3.52,15.14,3.52,23.45V210.32z M876.8,210.32c0,2.75-0.76,4.82-2.28,6.23
		s-3.68,2.11-6.5,2.11H843.2c-5.35,0-8.02-2.78-8.02-8.35V89.48c0-2.31,0.65-4.3,1.95-5.96c1.3-1.66,3.32-2.49,6.07-2.49h24.82
		c0.87,0,1.81,0.2,2.82,0.59c1.01,0.4,1.95,0.98,2.82,1.73c0.87,0.76,1.61,1.64,2.22,2.66c0.61,1.01,0.92,2.17,0.92,3.47V210.32z
		 M876.8,55.77c0,0.87-0.2,1.81-0.6,2.82c-0.4,1.01-0.96,1.99-1.68,2.93c-0.72,0.94-1.61,1.72-2.66,2.33
		c-1.05,0.61-2.22,0.92-3.52,0.92H843.2c-5.35,0-8.02-3-8.02-9V34.64c0-3.03,0.65-5.18,1.95-6.45c1.3-1.26,3.32-1.9,6.07-1.9h25.14
		c2.53,0,4.57,0.63,6.12,1.9c1.55,1.27,2.33,3.41,2.33,6.45V55.77z M1035.64,217.75c-0.9,0.62-2.26,0.92-4.07,0.92h-36.63
		c-1.23,0-2.38-0.47-3.47-1.41c-1.08-0.94-2.28-2.35-3.58-4.23l-35.44-50.18l-12.03,12.46v35.01c0,0.58-0.09,1.34-0.27,2.28
		c-0.18,0.94-0.54,1.86-1.08,2.76c-0.54,0.91-1.28,1.68-2.22,2.33c-0.94,0.65-2.17,0.98-3.68,0.98h-27.2c-1.3,0-2.42-0.34-3.36-1.03
		c-0.94-0.69-1.68-1.46-2.22-2.33c-0.54-0.87-0.94-1.68-1.19-2.44c-0.25-0.76-0.38-1.21-0.38-1.36V48.4c0-1.23,0.04-2.35,0.11-3.36
		c0.07-1.01,0.38-1.88,0.92-2.6c0.54-0.72,1.39-1.28,2.55-1.68c1.15-0.4,2.78-0.6,4.88-0.6h25.9c1.37,0,2.51,0.24,3.41,0.71
		c0.9,0.47,1.63,1.07,2.17,1.79s0.9,1.5,1.08,2.33c0.18,0.83,0.27,1.61,0.27,2.33v80.2l39.02-43.35c1.88-2.1,4.12-3.14,6.72-3.14
		h33.27c3.97,0,5.96,1.55,5.96,4.66c0,0.8-0.13,1.45-0.38,1.95c-0.25,0.51-0.78,1.23-1.57,2.17l-44.54,47.04l56.03,71.97h-0.22
		c0.94,0.94,1.61,1.9,2,2.87c0.4,0.98,0.6,1.86,0.6,2.66C1036.99,216,1036.54,217.14,1035.64,217.75z M1164.01,166.73
		c-1.7,6.11-4.08,11.8-7.15,17.07c-3.07,5.27-6.76,10.06-11.05,14.36c-4.3,4.3-9.09,7.98-14.36,11.05
		c-5.27,3.07-10.93,5.44-16.96,7.1c-6.03,1.66-12.34,2.49-18.91,2.49c-6.65,0-13.02-0.83-19.13-2.49c-6.11-1.66-11.8-4.03-17.07-7.1
		c-5.27-3.07-10.06-6.76-14.36-11.05c-4.3-4.3-7.98-9.09-11.05-14.36c-3.07-5.27-5.46-10.96-7.15-17.07
		c-1.7-6.11-2.55-12.48-2.55-19.13c0-6.65,0.85-13.04,2.55-19.18c1.7-6.14,4.08-11.83,7.15-17.07c3.07-5.24,6.76-10.01,11.05-14.31
		c4.3-4.3,9.09-7.96,14.36-11c5.27-3.03,10.96-5.38,17.07-7.05c6.1-1.66,12.48-2.49,19.13-2.49c9.83,0,19.06,1.83,27.69,5.47
		c8.63,3.65,16.15,8.67,22.54,15.06c6.39,6.4,11.45,13.91,15.17,22.54c3.72,8.64,5.58,17.98,5.58,28.02
		C1166.56,154.25,1165.71,160.63,1164.01,166.73z"/>
	<path d="M618.27,128.68c-3.07-3.18-6.69-5.69-10.84-7.53c-4.16-1.84-8.65-2.76-13.49-2.76c-4.7,0-8.98,0.92-12.84,2.76
		c-3.87,1.84-7.17,4.35-9.92,7.53c-2.75,3.18-4.86,6.87-6.34,11.05c-1.48,4.19-2.22,8.6-2.22,13.22c0,4.77,0.74,9.23,2.22,13.39
		c1.48,4.15,3.59,7.75,6.34,10.78c2.75,3.03,6.05,5.44,9.92,7.21c3.87,1.77,8.15,2.66,12.84,2.66c4.84,0,9.34-0.88,13.49-2.66
		c4.15-1.77,7.77-4.17,10.84-7.21c3.07-3.03,5.47-6.63,7.21-10.78c1.73-4.16,2.6-8.62,2.6-13.39c0-4.62-0.87-9.03-2.6-13.22
		C623.75,135.55,621.34,131.86,618.27,128.68z"/>
	<path d="M149.33,111.28c-3.9-3.72-8.47-6.61-13.71-8.67c-5.24-2.06-10.82-3.09-16.74-3.09h-14.31v83.34h9.1
		c1.66,0,3.29-0.05,4.88-0.16c1.59-0.11,3.18-0.23,4.77-0.38c5.42-0.43,10.48-1.75,15.17-3.96c4.7-2.2,8.8-5.09,12.3-8.67
		c3.5-3.58,6.25-7.79,8.24-12.63c1.99-4.84,2.98-10.11,2.98-15.82c0-6.07-1.14-11.65-3.41-16.74
		C156.32,119.41,153.23,115.01,149.33,111.28z"/>
</g>
</svg>
